<svg width="32" height="32" viewBox="0 0 32 32" fill="none" xmlns="http://www.w3.org/2000/svg">
<g clip-path="url(#clip0_13_2082)">
<path fill-rule="evenodd" clip-rule="evenodd" d="M11.0947 0.390259C9.33361 0.390259 7.64471 1.08984 6.39945 2.3351L0.390625 8.34389V11.0943C0.390625 13.0375 1.22531 14.7857 2.55571 16C1.22531 17.2143 0.390625 18.9625 0.390625 20.9057V23.6561L6.39945 29.6649C7.64471 30.9102 9.33361 31.6098 11.0947 31.6098C13.0379 31.6098 14.7861 30.7751 16.0004 29.4447C17.2147 30.7751 18.9629 31.6098 20.9061 31.6098C22.6672 31.6098 24.3561 30.9102 25.6013 29.6649L31.6101 23.6561V20.9057C31.6101 18.9625 30.7755 17.2143 29.4451 16C30.7755 14.7857 31.6101 13.0375 31.6101 11.0943V8.34389L25.6013 2.3351C24.3561 1.08984 22.6672 0.390259 20.9061 0.390259C18.9629 0.390259 17.2147 1.22494 16.0004 2.55534C14.7861 1.22494 13.0379 0.390259 11.0947 0.390259ZM20.4951 16C20.4202 15.9317 20.3468 15.8615 20.2748 15.7896L16.0004 11.5152L11.726 15.7896C11.654 15.8615 11.5806 15.9317 11.5057 16C11.5806 16.0683 11.654 16.1385 11.726 16.2104L16.0004 20.4848L20.2748 16.2104C20.3468 16.1385 20.4202 16.0683 20.4951 16ZM17.7348 23.6561V24.9697C17.7348 26.7211 19.1546 28.141 20.9061 28.141C21.7471 28.141 22.5537 27.8068 23.1485 27.2121L28.1413 22.2192V20.9057C28.1413 19.1543 26.7215 17.7344 24.9701 17.7344C24.129 17.7344 23.3224 18.0685 22.7276 18.6633L17.7348 23.6561ZM14.266 23.6561L9.27312 18.6633C8.67839 18.0685 7.87179 17.7344 7.03072 17.7344C5.27928 17.7344 3.85946 19.1543 3.85946 20.9057V22.2192L8.85228 27.2121C9.44702 27.8068 10.2536 28.141 11.0947 28.141C12.8461 28.141 14.266 26.7211 14.266 24.9697V23.6561ZM14.266 7.03035V8.34389L9.27312 13.3367C8.67839 13.9315 7.87179 14.2656 7.03072 14.2656C5.27928 14.2656 3.85946 12.8457 3.85946 11.0943V9.78077L8.85228 4.78793C9.44702 4.19321 10.2536 3.8591 11.0947 3.8591C12.8461 3.8591 14.266 5.27891 14.266 7.03035ZM22.7276 13.3367L17.7348 8.34389V7.03035C17.7348 5.27891 19.1546 3.8591 20.9061 3.8591C21.7471 3.8591 22.5537 4.19321 23.1485 4.78793L28.1413 9.78077V11.0943C28.1413 12.8457 26.7215 14.2656 24.9701 14.2656C24.129 14.2656 23.3224 13.9315 22.7276 13.3367Z" fill="white"/>
</g>
<defs>
<clipPath id="clip0_13_2082">
<rect width="32" height="32" fill="white"/>
</clipPath>
</defs>
</svg>
