<svg width="16" height="16" viewBox="0 0 16 16" fill="none" xmlns="http://www.w3.org/2000/svg">
<path d="M15.9846 8.18754C15.9846 7.64542 15.9397 7.10037 15.844 6.56703H8.16699V9.63809H12.5633C12.3808 10.6286 11.7947 11.5048 10.9363 12.0615V14.0542H13.5591C15.0993 12.6652 15.9846 10.6139 15.9846 8.18754Z" fill="white"/>
<path d="M8.1678 15.9795C10.3629 15.9795 12.2142 15.2733 13.5629 14.0542L10.9401 12.0615C10.2104 12.548 9.26836 12.8234 8.17079 12.8234C6.04743 12.8234 4.24705 11.4198 3.60107 9.53259H0.894531V11.5868C2.27621 14.2798 5.09042 15.9795 8.1678 15.9795Z" fill="white"/>
<path d="M3.59767 9.5326C3.25673 8.54213 3.25673 7.4696 3.59767 6.47912V4.42491H0.894115C-0.260278 6.67839 -0.260278 9.33334 0.894115 11.5868L3.59767 9.5326Z" fill="white"/>
<path d="M8.1678 3.18534C9.32818 3.16776 10.4497 3.5956 11.29 4.38095L13.6138 2.10403C12.1424 0.750179 10.1895 0.00585703 8.1678 0.0293002C5.09042 0.0293002 2.27621 1.72893 0.894531 4.4249L3.59808 6.47912C4.24107 4.58901 6.04444 3.18534 8.1678 3.18534Z" fill="white"/>
</svg>
