<svg width="68" height="64" viewBox="0 0 68 64" fill="none" xmlns="http://www.w3.org/2000/svg">
<g clip-path="url(#clip0_8_609)">
<path d="M48.9363 38.1943L58.9906 42.1117C60.2309 42.5122 61.3228 43.2799 62.1242 44.3149C62.9255 45.3498 63.3992 46.6041 63.4835 47.9143C63.5865 49.0247 63.2559 50.1319 62.5621 51.0005C61.8683 51.8692 60.8658 52.4308 59.7678 52.5662H9.05919C8.45 52.5953 7.8416 52.4941 7.27396 52.2692C6.70633 52.0444 6.19231 51.701 5.76567 51.2617C5.33904 50.8223 5.00945 50.2969 4.79856 49.72C4.58767 49.1431 4.50025 48.5277 4.54204 47.9143C4.54204 44.8539 7.40776 42.8952 9.95776 42.0627L19.2106 38.4637L20.7649 41.9403C21.576 43.742 22.8844 45.2703 24.5338 46.3426C26.1831 47.415 28.1037 47.9861 30.0663 47.9878H37.9349C39.9016 47.9908 41.8275 47.4219 43.4816 46.3492C45.1356 45.2766 46.4478 43.7458 47.2606 41.9403L48.9363 38.1943ZM29.5078 29.723H38.5663V32.5631C38.5626 33.0261 38.7005 33.479 38.9613 33.8601C39.222 34.2413 39.5929 34.5322 40.0235 34.6932L44.7106 36.5295L43.132 40.0551C42.6849 41.0594 41.958 41.9111 41.0396 42.5066C40.1213 43.1021 39.0511 43.4157 37.9592 43.4093H30.0663C28.9779 43.414 27.9116 43.0994 26.9974 42.5038C26.0832 41.9083 25.3607 41.0575 24.9178 40.0551L23.4606 36.8967L28.0263 35.1094C28.4549 34.9454 28.8239 34.6538 29.0842 34.2733C29.3445 33.8928 29.4837 33.4415 29.4835 32.9793L29.5078 29.723ZM34.0006 0C31.0028 0.0256612 28.1353 1.2393 26.0178 3.37871C23.9002 5.51812 22.7025 8.41153 22.6835 11.4338C22.6835 11.7328 22.7419 12.0289 22.8554 12.3052C22.9689 12.5814 23.1353 12.8324 23.345 13.0439C23.5547 13.2553 23.8037 13.423 24.0777 13.5375C24.3517 13.6519 24.6454 13.7108 24.942 13.7108C25.2386 13.7108 25.5323 13.6519 25.8064 13.5375C26.0804 13.423 26.3294 13.2553 26.5391 13.0439C26.7488 12.8324 26.9152 12.5814 27.0287 12.3052C27.1422 12.0289 27.2006 11.7328 27.2006 11.4338C27.2378 9.62742 27.9662 7.90543 29.2335 6.62784C30.5007 5.35025 32.2088 4.61594 34.0006 4.57842C38.6392 4.57842 40.8249 8.69166 40.8249 12.5845C40.8249 15.0329 40.3392 16.306 39.5863 17.0161C37.9242 18.0734 35.9522 18.5229 34.0006 18.2892C33.702 18.2892 33.4063 18.3489 33.1306 18.4648C32.855 18.5808 32.605 18.7507 32.3949 18.9648C32.1849 19.1788 32.019 19.4327 31.9069 19.7118C31.7949 19.9909 31.7388 20.2896 31.742 20.5907V25.1446H29.4835C28.2829 25.1573 27.1351 25.6438 26.2862 26.4997C25.4372 27.3556 24.9547 28.5127 24.942 29.723V31.3145L7.94204 37.9495C6.00721 38.7397 4.23005 39.876 2.69633 41.3037C1.82693 42.1646 1.13977 43.1943 0.676427 44.3305C0.21308 45.4667 -0.0168259 46.6859 0.000615516 47.9143C-0.0432612 49.1884 0.175852 50.4579 0.64407 51.6422C1.11229 52.8265 1.81941 53.8998 2.72062 54.7942C4.44691 56.3946 6.71409 57.2703 9.05919 57.2425H11.342V59.5195H11.0992C10.5343 59.6008 10.0201 59.8924 9.65788 60.3368C9.29564 60.7813 9.11163 61.3464 9.1421 61.9208C9.17256 62.4952 9.4153 63.0373 9.82249 63.4403C10.2297 63.8432 10.7718 64.0779 11.342 64.0979H15.8835C16.4452 64.0393 16.9654 63.7728 17.3437 63.35C17.7219 62.9272 17.9312 62.3781 17.9312 61.8087C17.9312 61.2394 17.7219 60.6903 17.3437 60.2674C16.9654 59.8446 16.4452 59.5782 15.8835 59.5195V57.2425H52.142V59.5195H51.9235C51.6064 59.5057 51.29 59.5586 50.9944 59.675C50.6988 59.7914 50.4305 59.9686 50.2067 60.1954C49.9828 60.4222 49.8083 60.6935 49.6943 60.9921C49.5803 61.2906 49.5293 61.6099 49.5446 61.9295C49.5598 62.249 49.641 62.5619 49.7829 62.848C49.9248 63.1342 50.1244 63.3873 50.3688 63.5914C50.6132 63.7954 50.8971 63.9459 51.2025 64.0331C51.5078 64.1203 51.8278 64.1424 52.142 64.0979H56.6835C57.2452 64.0393 57.7654 63.7728 58.1437 63.35C58.5219 62.9272 58.7312 62.3781 58.7312 61.8087C58.7312 61.2394 58.5219 60.6903 58.1437 60.2674C57.7654 59.8446 57.2452 59.5782 56.6835 59.5195V57.2425H59.7678C61.02 57.1871 62.2407 56.8289 63.3269 56.1983C64.4131 55.5677 65.3331 54.683 66.0092 53.619C67.2533 51.9768 67.9504 49.98 68.0006 47.9143C67.8634 45.7175 67.1041 43.6064 65.8127 41.8315C64.5214 40.0566 62.7521 38.6924 60.7149 37.9005L43.0349 30.9962V29.723C43.0286 28.5149 42.5514 27.3578 41.7063 26.5012C40.8613 25.6447 39.716 25.1574 38.5178 25.1446H36.2592V22.2066C38.4941 22.2626 40.6941 21.6399 42.5735 20.4193C43.5579 19.3856 44.3119 18.152 44.7852 16.8008C45.2585 15.4496 45.44 14.0122 45.3178 12.5845C45.4127 11.0049 45.1935 9.42205 44.673 7.92903C44.1525 6.43601 43.3413 5.06294 42.2869 3.89051C41.2326 2.71807 39.9564 1.76994 38.5334 1.10183C37.1104 0.433713 35.5693 0.0590985 34.0006 0Z" fill="white"/>
</g>
<defs>
<clipPath id="clip0_8_609">
<rect width="68" height="64" fill="white"/>
</clipPath>
</defs>
</svg>
