<svg width="20" height="21" viewBox="0 0 20 21" fill="none" xmlns="http://www.w3.org/2000/svg">
<path d="M14.8253 19.4583H5.17533C2.89199 19.4583 1.04199 17.6 1.04199 15.3167V9.14166C1.04199 8.00833 1.74199 6.58333 2.64199 5.88333L7.13366 2.38333C8.48366 1.33333 10.642 1.28333 12.042 2.26667L17.192 5.875C18.1837 6.56666 18.9587 8.05 18.9587 9.25833V15.325C18.9587 17.6 17.1087 19.4583 14.8253 19.4583ZM7.90033 3.36667L3.40866 6.86666C2.81699 7.33333 2.29199 8.39166 2.29199 9.14166V15.3167C2.29199 16.9083 3.58366 18.2083 5.17533 18.2083H14.8253C16.417 18.2083 17.7087 16.9167 17.7087 15.325V9.25833C17.7087 8.45833 17.1337 7.35 16.4753 6.9L11.3253 3.29167C10.3753 2.625 8.80866 2.65833 7.90033 3.36667Z" fill="#FEFEFE"/>
<path d="M10 16.125C9.65833 16.125 9.375 15.8417 9.375 15.5V13C9.375 12.6583 9.65833 12.375 10 12.375C10.3417 12.375 10.625 12.6583 10.625 13V15.5C10.625 15.8417 10.3417 16.125 10 16.125Z" fill="#FEFEFE"/>
</svg>
