<svg width="62" height="62" viewBox="0 0 62 62" fill="none" xmlns="http://www.w3.org/2000/svg">
<path d="M41.9091 19H20.0909C19.4897 19 19 19.9119 19 21.0315C19 22.1511 19.4897 23.063 20.0909 23.063H41.9091C42.5103 23.063 43 22.1511 43 21.0315C43 19.9119 42.5103 19 41.9091 19Z" fill="#FFB932"/>
<path d="M41.9091 29.1196H20.0909C19.4897 29.1196 19 30.0315 19 31.1511C19 32.2707 19.4897 33.1826 20.0909 33.1826H41.9091C42.5103 33.1826 43 32.2707 43 31.1511C43 30.0315 42.5103 29.1196 41.9091 29.1196Z" fill="#FFB932"/>
<path d="M41.9091 38.937H20.0909C19.4897 38.937 19 39.8489 19 40.9685C19 42.0881 19.4897 43 20.0909 43H41.9091C42.5103 43 43 42.0881 43 40.9685C43 39.8489 42.5103 38.937 41.9091 38.937Z" fill="#FFB932"/>
</svg>
