<svg width="16" height="19" viewBox="0 0 16 19" fill="none" xmlns="http://www.w3.org/2000/svg">
<path d="M5.24967 11.3333L10.7497 5.83333L5.24967 11.3333ZM5.70801 6.29167H5.71717H5.70801ZM10.2913 10.875H10.3005H10.2913ZM14.4163 17.75V3.08333C14.4163 2.5971 14.2232 2.13079 13.8794 1.78697C13.5356 1.44315 13.0692 1.25 12.583 1.25H3.41634C2.93011 1.25 2.4638 1.44315 2.11998 1.78697C1.77616 2.13079 1.58301 2.5971 1.58301 3.08333V17.75L4.79134 15.9167L7.99967 17.75L11.208 15.9167L14.4163 17.75ZM6.16634 6.29167C6.16634 6.41322 6.11805 6.5298 6.0321 6.61576C5.94614 6.70171 5.82956 6.75 5.70801 6.75C5.58645 6.75 5.46987 6.70171 5.38392 6.61576C5.29796 6.5298 5.24967 6.41322 5.24967 6.29167C5.24967 6.17011 5.29796 6.05353 5.38392 5.96758C5.46987 5.88162 5.58645 5.83333 5.70801 5.83333C5.82956 5.83333 5.94614 5.88162 6.0321 5.96758C6.11805 6.05353 6.16634 6.17011 6.16634 6.29167ZM10.7497 10.875C10.7497 10.9966 10.7014 11.1131 10.6154 11.1991C10.5295 11.285 10.4129 11.3333 10.2913 11.3333C10.1698 11.3333 10.0532 11.285 9.96725 11.1991C9.8813 11.1131 9.83301 10.9966 9.83301 10.875C9.83301 10.7534 9.8813 10.6369 9.96725 10.5509C10.0532 10.465 10.1698 10.4167 10.2913 10.4167C10.4129 10.4167 10.5295 10.465 10.6154 10.5509C10.7014 10.6369 10.7497 10.7534 10.7497 10.875Z" stroke="#718096" stroke-width="1.5" stroke-linecap="round" stroke-linejoin="round"/>
</svg>
