<svg width="206" height="39" viewBox="0 0 206 39" fill="none" xmlns="http://www.w3.org/2000/svg">
<path d="M18.7803 38.3462L10.8096 24.2681H7.39356V38.3462H0.147461V2.21924H13.708C16.503 2.21924 18.8838 2.71957 20.8506 3.72022C22.8174 4.68636 24.2839 6.01482 25.25 7.70558C26.2507 9.36183 26.751 11.2251 26.751 13.2954C26.751 15.6763 26.0609 17.8329 24.6807 19.7652C23.3005 21.663 21.2474 22.9742 18.5215 23.6988L27.1651 38.3462H18.7803ZM7.39356 18.8335H13.4492C15.416 18.8335 16.8825 18.3677 17.8487 17.4361C18.8148 16.4699 19.2979 15.1415 19.2979 13.4507C19.2979 11.7944 18.8148 10.5178 17.8487 9.62062C16.8825 8.68898 15.416 8.22316 13.4492 8.22316H7.39356V18.8335Z" fill="white"/>
<path d="M61.2541 23.3882C61.2541 24.4234 61.1851 25.355 61.0471 26.1831H40.0851C40.2577 28.2535 40.9823 29.8752 42.259 31.0484C43.5357 32.2216 45.1056 32.8082 46.9689 32.8082C49.6603 32.8082 51.5754 31.6522 52.7141 29.3404H60.5295C59.7014 32.1008 58.1141 34.3781 55.7678 36.1724C53.4214 37.9322 50.5402 38.8121 47.1242 38.8121C44.3638 38.8121 41.8794 38.2082 39.6711 37.0005C37.4972 35.7583 35.7892 34.0158 34.547 31.773C33.3394 29.5301 32.7355 26.9423 32.7355 24.0093C32.7355 21.0419 33.3394 18.4367 34.547 16.1939C35.7547 13.951 37.4455 12.2258 39.6193 11.0181C41.7931 9.8104 44.2948 9.20655 47.1242 9.20655C49.8501 9.20655 52.2827 9.79314 54.4221 10.9663C56.5959 12.1395 58.2694 13.813 59.4426 15.9868C60.6503 18.1262 61.2541 20.5933 61.2541 23.3882ZM53.7492 21.3179C53.7147 19.4546 53.0419 17.9709 51.7306 16.8667C50.4195 15.728 48.815 15.1587 46.9172 15.1587C45.1229 15.1587 43.6047 15.7108 42.3625 16.815C41.1548 17.8846 40.4129 19.3856 40.1369 21.3179H53.7492Z" fill="white"/>
<path d="M107.587 9.67238L99.2023 38.3462H91.3869L86.1593 18.3159L80.9318 38.3462H73.0646L64.6281 9.67238H71.9777L77.05 31.5142L82.5363 9.67238H90.1965L95.5793 31.4624L100.652 9.67238H107.587Z" fill="white"/>
<path d="M110.938 23.9058C110.938 21.0074 111.508 18.4367 112.646 16.1939C113.82 13.951 115.39 12.2258 117.356 11.0181C119.358 9.8104 121.583 9.20655 124.033 9.20655C126.172 9.20655 128.036 9.63787 129.623 10.5005C131.245 11.3631 132.539 12.45 133.505 13.7612V9.67238H140.803V38.3462H133.505V34.1539C132.573 35.4996 131.279 36.621 129.623 37.5181C128.001 38.3807 126.121 38.8121 123.981 38.8121C121.566 38.8121 119.358 38.191 117.356 36.9488C115.39 35.7066 113.82 33.9641 112.646 31.7212C111.508 29.4439 110.938 26.8387 110.938 23.9058ZM133.505 24.0093C133.505 22.2495 133.16 20.7486 132.47 19.5064C131.78 18.2297 130.848 17.2635 129.675 16.6079C128.502 15.9178 127.242 15.5728 125.896 15.5728C124.551 15.5728 123.309 15.9006 122.17 16.5562C121.031 17.2118 120.1 18.1779 119.375 19.4546C118.685 20.6968 118.34 22.1805 118.34 23.9058C118.34 25.6311 118.685 27.1493 119.375 28.4605C120.1 29.7372 121.031 30.7206 122.17 31.4107C123.343 32.1008 124.585 32.4458 125.896 32.4458C127.242 32.4458 128.502 32.118 129.675 31.4624C130.848 30.7723 131.78 29.8062 132.47 28.564C133.16 27.2873 133.505 25.7691 133.505 24.0093Z" fill="white"/>
<path d="M160.146 38.8121C157.8 38.8121 155.695 38.398 153.832 37.5699C151.969 36.7072 150.485 35.5513 149.381 34.1021C148.311 32.6529 147.725 31.0484 147.621 29.2886H154.919C155.057 30.3928 155.592 31.3072 156.523 32.0318C157.49 32.7564 158.68 33.1187 160.095 33.1187C161.475 33.1187 162.545 32.8427 163.304 32.2906C164.097 31.7385 164.494 31.0311 164.494 30.1685C164.494 29.2369 164.011 28.5467 163.045 28.0982C162.113 27.6151 160.612 27.0975 158.542 26.5454C156.403 26.0279 154.643 25.493 153.263 24.941C151.917 24.3889 150.744 23.5435 149.743 22.4048C148.777 21.2661 148.294 19.7307 148.294 17.7984C148.294 16.2111 148.742 14.7619 149.64 13.4507C150.571 12.1395 151.882 11.1043 153.573 10.3452C155.298 9.58611 157.317 9.20655 159.629 9.20655C163.045 9.20655 165.771 10.0692 167.807 11.7944C169.842 13.4852 170.964 15.7798 171.171 18.6782H164.235C164.132 17.5396 163.649 16.6424 162.786 15.9868C161.958 15.2967 160.837 14.9517 159.422 14.9517C158.111 14.9517 157.093 15.1932 156.368 15.6763C155.678 16.1594 155.333 16.8322 155.333 17.6948C155.333 18.661 155.816 19.4029 156.782 19.9204C157.748 20.4035 159.249 20.9038 161.285 21.4214C163.355 21.939 165.063 22.4738 166.409 23.0259C167.755 23.578 168.911 24.4406 169.877 25.6138C170.878 26.7525 171.395 28.2707 171.43 30.1685C171.43 31.8247 170.964 33.3085 170.032 34.6197C169.135 35.9309 167.824 36.966 166.099 37.7251C164.408 38.4498 162.424 38.8121 160.146 38.8121Z" fill="white"/>
<path d="M194.82 9.25831C196.994 9.25831 198.926 9.74139 200.617 10.7075C202.308 11.6392 203.619 13.0366 204.551 14.8999C205.517 16.7287 206 18.937 206 21.5249V38.3462H198.754V22.5083C198.754 20.231 198.184 18.4885 197.046 17.2808C195.907 16.0386 194.354 15.4175 192.388 15.4175C190.386 15.4175 188.799 16.0386 187.626 17.2808C186.487 18.4885 185.918 20.231 185.918 22.5083V38.3462H178.672V0.0454102H185.918V13.2437C186.849 12.0015 188.092 11.0353 189.644 10.3452C191.197 9.62062 192.922 9.25831 194.82 9.25831Z" fill="white"/>
</svg>
